# AST/ASF file generated using VICON BodyLanguage
# -----------------------------------------------
:version 1.10
:name VICON
:units
  mass 1.0
  length 0.45
  angle deg
:documentation
   .ast/.asf automatically generated from VICON data using
   VICON BodyBuilder and BodyLanguage model FoxedUp or BRILLIANT.MOD
:root
   order TX TY TZ RX RY RZ
   axis XYZ
   position 0 0 0  
   orientation 0 0 0 
:bonedata
  begin
     id 1 
     name lhipjoint
     direction 0.521452 -0.77106 0.36545 
     length 2.0933 
     axis 0 0 0  XYZ
  end
  begin
     id 2 
     name lfemur
     direction 0.34202 -0.939693 0  
     length 6.83441  
     axis 0 0 20  XYZ
    dof rx ry rz
    limits (-160.0 20.0)
           (-70.0 70.0)
           (-60.0 70.0)
  end
  begin
     id 3 
     name ltibia
     direction 0.34202 -0.939693 0   
     length 7.28749   
     axis 0 0 20   XYZ
    dof rx
    limits (-10.0 170.0)
  end
  begin
     id 4 
     name lfoot
     direction 0.100608 -0.276418 0.955757   
     length 1.52195   
     axis -90 7.62852e-016 20   XYZ
    dof rx rz
    limits (-45.0 90.0)
           (-70.0 20.0)
  end
  begin
     id 5 
     name ltoes
     direction 1.53558e-011 -4.21907e-011 1   
     length 0.770459   
     axis -90 7.62852e-016 20   XYZ
    dof rx
    limits (-90.0 20.0)
  end
  begin
     id 6 
     name rhipjoint
     direction -0.488071 -0.788702 0.373812   
     length 2.04648  
     axis 0 0 0  XYZ 
  end
  begin
     id 7 
     name rfemur
     direction -0.34202 -0.939693 0   
     length 6.92583   
     axis 0 0 -20   XYZ
    dof rx ry rz
    limits (-160.0 20.0)
           (-70.0 70.0)
           (-70.0 60.0)
  end
  begin
     id 8 
     name rtibia
     direction -0.34202 -0.939693 0   
     length 7.41043   
     axis 0 0 -20   XYZ
    dof rx
    limits (-10.0 170.0)
 end
 begin
     id 9 
     name rfoot
     direction -0.0784433 -0.215521 0.973343   
     length 1.67708  
     axis -90 -7.62852e-016 -20   XYZ
    dof rx rz
    limits (-45.0 90.0)
           (-20.0 70.0)
  end
  begin
     id 10 
     name rtoes
     direction -1.53551e-011 -4.21842e-011 1   
     length 0.849787   
     axis -90 -7.62852e-016 -20   XYZ
    dof rx
    limits (-90.0 20.0)
  end
  begin
     id 11 
     name lowerback
     direction -0.0122332 0.997575 -0.0685192   
     length 1.98724   
     axis 0 0 0   XYZ
    dof rx ry rz
    limits (-20.0 45.0)
           (-30.0 30.0)
           (-30.0 30.0)
  end
  begin
     id 12 
     name upperback
     direction 0.0182347 0.999724 -0.0148421   
     length 1.99029   
     axis 0 0 0   XYZ
    dof rx ry rz
    limits (-20.0 45.0)
           (-30.0 30.0)
           (-30.0 30.0)
  end
  begin
     id 13 
     name thorax
     direction 0.0242908 0.99956 0.0170184   
     length 1.99573   
     axis 0 0 0   XYZ
    dof rx ry rz
    limits (-20.0 45.0)
           (-30.0 30.0)
           (-30.0 30.0)
  end
  begin
     id 14 
     name lowerneck
     direction 0.0654488 0.985533 0.156338   
     length 1.4285   
     axis 0 0 0   XYZ
    dof rx ry rz
    limits (-20.0 45.0)
           (-30.0 30.0)
           (-30.0 30.0)
  end
  begin
     id 15 
     name upperneck
     direction -0.02953 0.998556 -0.0448842   
     length 1.44709   
     axis 0 0 0   XYZ
    dof rx ry rz
    limits (-20.0 45.0)
           (-30.0 30.0)
           (-30.0 30.0)
  end
  begin
     id 16
     name head
     direction -0.0155588 0.999386 -0.0314063  
     length 1.44689  
     axis 0 0 0   XYZ
    dof rx ry rz
    limits (-20.0 45.0)
           (-30.0 30.0)
           (-30.0 30.0)
  end
  begin
     id 17 
     name lclavicle
     direction 0.968229 0.236071 -0.0824755  
     length 3.60593  
     axis 0 0 0   XYZ
    dof ry rz
    limits (-20.0 10.0)
           (0.0 20.0)
  end
  begin
     id 18 
     name lhumerus
     direction 1 -4.48968e-011 7.8138e-029   
     length 5.06035   
     axis 180 -30 -90   XYZ
    dof rx ry rz
    limits (-60.0 90.0)
           (-90.0 90.0)
           (-90.0 90.0)
  end
  begin
     id 19
     name lradius
     direction 1 -4.48967e-011 9.02887e-028   
     length 3.1478   
     axis 180 -30 -90   XYZ
    dof rx
    limits (-10.0 170.0)
  end
  begin
     id 20
     name lwrist
     direction 1 -4.48961e-011 7.20928e-028   
     length 1.5739   
     axis -5.52449e-016 90 90   XYZ
    dof ry
    limits (-180.0 0.0)
 end
  begin
     id 21 
     name lhand
     direction 1 -4.48972e-011 1.44186e-027   
     length 0.606747   
     axis -9.20027e-016 90 90   XYZ
    dof rx rz
    limits (-90.0 90.0)
           (-45.0 45.0)
  end
  begin
     id 22 
     name lfingers
     direction 1 -4.48943e-011 2.88371e-027   
     length 0.489175   
     axis -1.84005e-015 90 90   XYZ
    dof rx
    limits (0.0 90.0)
  end
  begin
     id 23
     name lthumb
     direction 0.707107 -6.34917e-011 0.707107   
     length 0.70236   
     axis -90 45 2.85299e-015   XYZ
    dof rx rz
    limits (-45.0 45.0)
           (-45.0 45.0)
  end
  begin
     id 24 
     name rclavicle
     direction -0.978165 0.207816 0.0022268   
     length 3.35425  
     axis 0 0 0   XYZ 
    dof ry rz
    limits (-10.0 20.0)
           (-20.0 0.0)
  end
  begin
     id 25 
     name rhumerus
     direction -1 -4.48964e-011 -4.02159e-027  
     length 5.12273   
     axis 180 30 90   XYZ
    dof rx ry rz
    limits (-90.0 60.0)
           (-90.0 90.0)
           (-90.0 90.0)
  end
  begin
     id 26 
     name rradius
     direction -1 -4.48966e-011 1.62746e-027   
     length 3.422   
     axis 180 30 90   XYZ
    dof rx
    limits (-10.0 170.0)
  end
  begin
     id 27 
     name rwrist
     direction -1 -4.4896e-011 7.20928e-028   
     length 1.711   
     axis -5.52449e-016 -90 -90   XYZ
    dof ry
    limits (-180.0 0.0)
  end
  begin
     id 28
     name rhand
     direction -1 -4.48979e-011 1.44186e-027   
     length 0.704599   
     axis -9.20027e-016 -90 -90   XYZ
    dof rx rz
    limits (-90.0 90.0)
           (-45.0 45.0)
  end
  begin
     id 29
     name rfingers
     direction -1 -4.48962e-011 2.88371e-027   
     length 0.568066   
     axis -1.84005e-015 -90 -90   XYZ
    dof rx
    limits (0.0 90.0)
  end
  begin
     id 30
     name rthumb
     direction -0.707107 -6.34949e-011 0.707107   
     length 0.815633   
     axis -90 -45 -2.85299e-015   XYZ
    dof rx rz
    limits (-45.0 45.0)
           (-45.0 45.0)
  end
:hierarchy
  begin
    root lhipjoint rhipjoint lowerback
    lhipjoint lfemur
    lfemur ltibia
    ltibia lfoot
    lfoot ltoes
    rhipjoint rfemur
    rfemur rtibia
    rtibia rfoot
    rfoot rtoes
    lowerback upperback
    upperback thorax
    thorax lowerneck lclavicle rclavicle
    lowerneck upperneck
    upperneck head
    lclavicle lhumerus
    lhumerus lradius
    lradius lwrist
    lwrist lhand lthumb
    lhand lfingers
    rclavicle rhumerus
    rhumerus rradius
    rradius rwrist
    rwrist rhand rthumb
    rhand rfingers
  end

#!OML:ASF E:\id_vita\Project 1\Capture day 1\Session 1\Male1.ASF
:FULLY-SPECIFIED
:DEGREES
512
root -16.7973 13.427 -5.8777 13.0076 86.8046 -30.275
lowerback 38.1193 0.330576 -2.53148
upperback 2.71695 -0.546512 -1.85722
thorax -15.9405 0.0486252 -0.511187
lowerneck -6.06865 1.95074 -2.63702
upperneck -0.654585 2.81574 6.99734
head 0.696965 1.55234 2.75382
rclavicle -1.74931e-014 -2.42517e-014
rhumerus 62.5019 18.2844 -56.3809
rradius 27.7451
rwrist 20.3752
rhand -42.1659 264.66
rfingers 7.12502
rthumb -15.0549 65.9072
lclavicle -1.74931e-014 -2.42517e-014
lhumerus 61.5443 -7.86148 52.2598
lradius 17.3111
lwrist -31.6148
lhand -35.8979 82.5149
lfingers 7.12502
lthumb -9.01131 -112.302
rfemur -62.3912 -0.691989 28.5788
rtibia 73.5018
rfoot -46.667 -25.8644
rtoes -12.1386
lfemur -40.2894 6.46573 -21.2861
ltibia 79.3015
lfoot -20.6338 -1.45291
ltoes 21.081
513
root -16.7386 13.462 -5.88598 13.2784 86.8979 -29.8392
lowerback 38.543 0.365505 -2.67061
upperback 2.73109 -0.566204 -1.85647
thorax -16.08 0.0551019 -0.431454
lowerneck -6.05932 1.86659 -2.52477
upperneck -1.01995 2.71954 6.95393
head 0.585844 1.50042 2.71113
rclavicle 2.78299e-014 1.70955e-014
rhumerus 62.594 18.1483 -56.39
rradius 27.6731
rwrist 20.3649
rhand -42.2988 265.876
rfingers 7.12502
rthumb -15.183 64.7009
lclavicle 2.78299e-014 1.70955e-014
lhumerus 61.7521 -7.82721 52.381
lradius 17.2359
lwrist -31.8062
lhand -35.8564 83.2194
lfingers 7.12502
lthumb -8.97124 -113.009
rfemur -61.6781 -0.976119 28.534
rtibia 72.8135
rfoot -46.3802 -25.9457
rtoes -12.7087
lfemur -41.8159 6.59007 -21.302
ltibia 80.6695
lfoot -21.3498 -1.08979
ltoes 22.9371
514
root -16.6728 13.5018 -5.89738 14.6149 87.0958 -28.2761
lowerback 38.9983 0.269044 -2.72395
upperback 2.81125 -0.713119 -1.8928
thorax -16.151 0.00400277 -0.379336
lowerneck -6.2374 1.84564 -2.63621
upperneck -1.35712 2.72657 7.05403
head 0.507157 1.50758 2.76446
rclavicle 1.43125e-014 1.35174e-014
rhumerus 62.8118 18.0345 -56.5227
rradius 27.545
rwrist 20.4816
rhand -42.589 266.863
rfingers 7.12502
rthumb -15.4625 63.7351
lclavicle 1.43125e-014 1.35174e-014
lhumerus 61.9373 -7.79607 51.8252
lradius 17.3545
lwrist -31.3449
lhand -35.7779 84.0224
lfingers 7.12502
lthumb -8.89552 -113.815
rfemur -60.821 -1.45747 28.452
rtibia 72.1045
rfoot -46.6285 -25.4615
rtoes -12.1295
lfemur -43.2697 6.53691 -21.3857
ltibia 81.919
lfoot -22.0275 -0.786446
ltoes 23.5538
515
root -16.6057 13.5357 -5.90442 16.3119 87.1637 -26.3758
lowerback 39.3933 0.316996 -2.95067
upperback 2.87579 -0.752475 -1.91447
thorax -16.2128 0.0085364 -0.268762
lowerneck -6.25787 1.8892 -2.57511
upperneck -1.80091 2.81572 7.05247
head 0.365763 1.55053 2.74897
rclavicle 2.78299e-014 2.46493e-014
rhumerus 63.0456 17.8846 -56.4463
rradius 27.3225
rwrist 20.4115
rhand -42.4672 266.209
rfingers 7.12502
rthumb -15.3452 64.3801
lclavicle 2.78299e-014 2.46493e-014
lhumerus 62.172 -7.57045 52.186
lradius 17.2106
lwrist -31.7789
lhand -35.848 84.3066
lfingers 7.12502
lthumb -8.96311 -114.096
rfemur -59.9787 -1.77515 28.3379
rtibia 71.3697
rfoot -46.8806 -25.0192
rtoes -11.6132
lfemur -44.6712 6.62613 -21.4719
ltibia 83.1035
lfoot -22.8873 -0.555889
ltoes 25.22
516
root -16.545 13.5637 -5.91095 16.2278 87.2056 -26.338
lowerback 39.6914 0.411515 -3.15151
upperback 2.91932 -0.719071 -1.89973
thorax -16.2636 0.0407439 -0.164886
lowerneck -6.24324 1.88807 -2.40379
upperneck -2.20108 2.83332 7.00101
head 0.238084 1.55567 2.69524
rclavicle -1.74931e-014 -2.18663e-015
rhumerus 63.2687 17.7123 -56.3219
rradius 27.0486
rwrist 20.4261
rhand -41.8268 265.385
rfingers 7.12502
rthumb -14.7283 65.1578
lclavicle -1.74931e-014 -2.18663e-015
lhumerus 62.437 -7.49853 52.4408
lradius 17.1211
lwrist -32.1177
lhand -35.9953 84.5422
lfingers 7.12502
lthumb -9.10527 -114.326
rfemur -59.2441 -2.06577 28.3655
rtibia 70.6265
rfoot -46.48 -25.5779
rtoes -13.0498
lfemur -46.1758 6.4792 -21.4102
ltibia 84.2872
lfoot -23.8836 -0.559452
ltoes 27.9015
517
root -16.4879 13.5951 -5.92046 15.5568 87.2927 -27.0038
lowerback 39.8926 0.435777 -3.21502
upperback 2.95578 -0.71733 -1.90665
thorax -16.2907 0.048809 -0.141838
lowerneck -6.30494 1.84547 -2.39812
upperneck -2.59081 2.80768 7.06531
head 0.125969 1.54289 2.71221
rclavicle 7.95139e-015 2.06736e-014
rhumerus 63.3992 17.4723 -56.3512
rradius 26.9016
rwrist 20.6264
rhand -43.5971 266.632
rfingers 7.12502
rthumb -16.4333 64.0438
lclavicle 7.95139e-015 2.06736e-014
lhumerus 62.7196 -7.55435 52.1703
lradius 17.2039
lwrist -31.9978
lhand -35.9951 84.1287
lfingers 7.12502
lthumb -9.10512 -113.912
rfemur -58.7816 -2.45155 28.5218
rtibia 69.8961
rfoot -44.8756 -28.0376
rtoes -17.5315
lfemur -47.86 6.15526 -21.286
ltibia 85.4385
lfoot -24.9908 -0.977816
ltoes 31.209
518
root -16.4368 13.6171 -5.93182 17.2094 87.3751 -25.6304
lowerback 39.773 0.440442 -3.2692
upperback 2.93237 -0.746894 -1.98216
thorax -16.2757 0.0366515 -0.182537
lowerneck -6.36288 1.76038 -2.48706
upperneck -2.93151 2.73034 7.27079
head 0.0286018 1.50659 2.79432
rclavicle 2.94201e-014 3.43897e-014
rhumerus 63.4085 17.1751 -56.4321
rradius 26.7239
rwrist 20.8223
rhand -43.186 266.309
rfingers 7.12502
rthumb -16.0374 64.3352
lclavicle 2.94201e-014 3.43897e-014
lhumerus 63.0148 -7.56442 52.2682
lradius 17.1294
lwrist -32.3099
lhand -35.9798 82.727
lfingers 7.12502
lthumb -9.09033 -112.511
rfemur -58.8449 -2.762 28.5189
rtibia 69.3488
rfoot -43.8318 -29.1806
rtoes -20.0256
lfemur -49.9209 6.06424 -21.3354
ltibia 86.5848
lfoot -26.0574 -1.84625
ltoes 35.169
519
root -16.3877 13.63 -5.94585 20.1507 87.4772 -22.9174
lowerback 39.6756 0.410633 -3.35318
upperback 2.9332 -0.831068 -2.07099
thorax -16.2379 0.00429168 -0.196958
lowerneck -6.52211 1.68192 -2.42865
upperneck -3.09845 2.63949 7.36426
head 0.00751672 1.46467 2.81468
rclavicle 1.19271e-014 5.74488e-014
rhumerus 63.5352 16.9756 -56.3092
rradius 26.4631
rwrist 20.7535
rhand -42.9203 265.884
rfingers 7.12502
rthumb -15.7816 64.7393
lclavicle 1.19271e-014 5.74488e-014
lhumerus 63.2774 -7.47477 52.4639
lradius 17.0147
lwrist -32.706
lhand -36.1404 82.5869
lfingers 7.12502
lthumb -9.24524 -112.364
rfemur -58.657 -3.09145 28.3124
rtibia 68.9869
rfoot -45.606 -26.1257
rtoes -15.9053
lfemur -51.9465 5.81486 -21.4577
ltibia 87.6332
lfoot -26.8978 -2.13471
ltoes 38.0059
520
root -16.3359 13.643 -5.96823 23.1905 87.5988 -19.7894
lowerback 39.9898 0.319663 -3.33643
upperback 2.9864 -0.957372 -2.18919
thorax -16.2887 -0.0462837 -0.280695
lowerneck -6.77659 1.70177 -2.20769
upperneck -3.13415 2.65835 7.23946
head 0.0427516 1.47777 2.73575
rclavicle 3.4191e-014 4.53229e-014
rhumerus 63.6125 16.7845 -56.3055
rradius 26.481
rwrist 20.5683
rhand -42.6975 265.64
rfingers 7.12502
rthumb -15.567 64.9661
lclavicle 3.4191e-014 4.53229e-014
lhumerus 63.5643 -7.33653 52.5104
lradius 16.97
lwrist -32.9394
lhand -36.35 84.0522
lfingers 7.12502
lthumb -9.4475 -113.82
rfemur -58.077 -3.59851 28.1127
rtibia 68.6526
rfoot -46.4855 -24.3746
rtoes -13.3358
lfemur -53.6505 5.11932 -21.5397
ltibia 88.5178
lfoot -27.6128 -1.47879
ltoes 38.0071
521
root -16.276 13.6699 -5.98286 24.7265 87.6964 -18.1503
lowerback 40.3165 0.290012 -3.33337
upperback 3.02972 -1.01377 -2.29901
thorax -16.3556 -0.0666705 -0.38082
lowerneck -6.95639 1.75089 -2.0547
upperneck -3.26334 2.73078 7.22876
head 0.030664 1.51772 2.70697
rclavicle 3.33958e-014 6.81831e-014
rhumerus 63.521 16.5666 -56.3429
rradius 26.8519
rwrist 20.3915
rhand -42.4722 265.646
rfingers 7.12502
rthumb -15.35 64.9436
lclavicle 3.33958e-014 6.81831e-014
lhumerus 63.8817 -7.06167 53.2821
lradius 16.8322
lwrist -33.8833
lhand -36.1879 85.0615
lfingers 7.12502
lthumb -9.29111 -114.837
rfemur -57.5061 -4.02887 28.0623
rtibia 68.1684
rfoot -45.5348 -25.444
rtoes -15.4894
lfemur -55.2067 4.82858 -21.5218
ltibia 89.2305
lfoot -28.3872 -1.12584
ltoes 36.1229
522
root -16.2241 13.6934 -5.99377 25.597 87.7932 -17.2992
lowerback 40.6148 0.315251 -3.36096
upperback 2.98072 -1.02459 -2.39456
thorax -16.5235 -0.0674283 -0.470588
lowerneck -7.0228 1.68977 -1.92974
upperneck -3.44954 2.66305 7.41812
head -0.0143289 1.48615 2.74585
rclavicle 2.06736e-014 8.94531e-015
rhumerus 63.4686 16.403 -56.1506
rradius 27.019
rwrist 20.0975
rhand -42.1494 264.79
rfingers 7.12502
rthumb -15.0391 65.7766
lclavicle 2.06736e-014 8.94531e-015
lhumerus 64.1712 -6.92691 54.2172
lradius 16.7103
lwrist -34.8933
lhand -35.1387 86.2057
lfingers 7.12502
lthumb -8.27861 -116.024
rfemur -57.0819 -4.33537 28.026
rtibia 67.6349
rfoot -44.5993 -26.1009
rtoes -17.295
lfemur -56.9891 4.47509 -21.3968
ltibia 89.9452
lfoot -29.0756 -0.631906
ltoes 32.8875
523
root -16.1618 13.7231 -5.99762 28.8447 87.8823 -14.0686
lowerback 40.8736 0.346622 -3.5308
upperback 2.92084 -1.09163 -2.49832
thorax -16.6854 -0.0821474 -0.468107
lowerneck -7.11602 1.61806 -1.81419
upperneck -3.50924 2.57113 7.60956
head -0.0134644 1.44385 2.78843
rclavicle -2.8625e-014 -1.43125e-014
rhumerus 63.3759 16.2025 -56.4591
rradius 26.8768
rwrist 20.1322
rhand -41.6229 264.301
rfingers 7.12502
rthumb -14.5319 66.2279
lclavicle -2.8625e-014 -1.43125e-014
lhumerus 64.4299 -6.94604 54.4997
lradius 16.5721
lwrist -35.3615
lhand -36.0516 81.915
lfingers 7.12502
lthumb -9.15961 -111.696
rfemur -56.5703 -4.61217 27.8841
rtibia 66.9943
rfoot -44.178 -26.4668
rtoes -19.1163
lfemur -58.7936 4.26967 -21.3784
ltibia 90.4993
lfoot -29.5347 0.0537481
ltoes 28.9772
524
root -16.1098 13.7451 -6.01272 30.6983 88.0296 -12.3986
lowerback 40.9724 0.277592 -3.47443
upperback 2.87748 -1.1768 -2.59448
thorax -16.7779 -0.121852 -0.565353
lowerneck -7.22879 1.58795 -1.74428
upperneck -3.64598 2.54326 7.71272
head -0.0365467 1.43296 2.8105
rclavicle 9.54166e-015 1.94809e-014
rhumerus 63.2845 15.977 -56.7103
rradius 26.8935
rwrist 20.2532
rhand -41.7535 264.437
rfingers 7.12502
rthumb -14.6576 66.1007
lclavicle 9.54166e-015 1.94809e-014
lhumerus 64.7285 -6.91434 54.6022
lradius 16.434
lwrist -35.7608
lhand -36.0208 81.5679
lfingers 7.12502
lthumb -9.12983 -111.35
rfemur -56.3761 -4.96123 27.8473
rtibia 66.372
rfoot -44.2766 -26.8223
rtoes -20.3803
lfemur -60.7794 3.87041 -21.3045
ltibia 91.0266
lfoot -30.0139 0.771076
ltoes 25.6585
525
root -16.0546 13.7654 -6.02239 28.7191 88.004 -14.4555
lowerback 41.102 0.400831 -3.61617
upperback 2.89528 -1.09404 -2.62522
thorax -16.7984 -0.0770362 -0.566656
lowerneck -7.40872 1.54382 -1.65343
upperneck -3.81337 2.49815 7.80059
head -0.0566351 1.41453 2.82403
rclavicle -1.27222e-014 -3.83654e-014
rhumerus 63.2996 15.7624 -56.5055
rradius 27.0111
rwrist 20.1345
rhand -42.7856 264.846
rfingers 7.12502
rthumb -15.6519 65.7672
lclavicle -1.27222e-014 -3.83654e-014
lhumerus 65.06 -7.07874 54.2287
lradius 16.5343
lwrist -35.5351
lhand -36.0754 81.7277
lfingers 7.12502
lthumb -9.18252 -111.508
rfemur -55.9692 -4.97091 27.8189
rtibia 65.7769
rfoot -44.6529 -27.1445
rtoes -20.7706
lfemur -62.469 3.81416 -21.0841
ltibia 91.5344
lfoot -30.7537 0.768543
ltoes 25.2356
526
root -15.9961 13.7813 -6.03061 27.6463 87.8409 -15.6196
lowerback 41.1084 0.633964 -3.9482
upperback 2.93406 -0.949068 -2.63231
thorax -16.7433 0.00498262 -0.470806
lowerneck -7.66731 1.51305 -1.52798
upperneck -3.86018 2.45514 7.78794
head -0.0237374 1.3987 2.79938
rclavicle 1.27222e-014 -5.96354e-015
rhumerus 63.3404 15.4927 -56.4018
rradius 26.9544
rwrist 19.9921
rhand -41.6969 263.453
rfingers 7.12502
rthumb -14.6032 67.0807
lclavicle 1.27222e-014 -5.96354e-015
lhumerus 65.3412 -7.05888 54.5386
lradius 16.5194
lwrist -35.9349
lhand -36.2034 81.6338
lfingers 7.12502
lthumb -9.30603 -111.408
rfemur -55.5361 -4.81155 27.6825
rtibia 65.2049
rfoot -44.2914 -27.8492
rtoes -22.4762
lfemur -64.1455 3.724 -20.8562
ltibia 92.0459
lfoot -31.5301 0.810626
ltoes 28.6919
